<?xml version="1.0" encoding="UTF-8"?>
<svg id="Layer_2" data-name="Layer 2" xmlns="http://www.w3.org/2000/svg" xmlns:xlink="http://www.w3.org/1999/xlink" viewBox="0 0 300 177.4">
  <defs>
    <style>
      .cls-1 {
        fill: none;
      }

      .cls-2 {
        clip-path: url(#clippath);
      }

      .cls-3 {
        fill: #fff;
      }

      .cls-4 {
        fill: #f16522;
      }
    </style>
    <clipPath id="clippath">
      <rect class="cls-1" width="300" height="177.4"/>
    </clipPath>
  </defs>
  <g id="Layer_1-2" data-name="Layer 1">
    <g class="cls-2">
      <path class="cls-4" d="M119.24,110.63h-.08c-.59,1.07-1.52,1.98-2.8,2.71-1.27,.74-2.76,1.11-4.44,1.11-1.31,0-2.55-.25-3.7-.74-1.15-.5-2.15-1.19-3-2.07-.84-.88-1.51-1.93-1.99-3.14-.48-1.21-.72-2.52-.72-3.94s.24-2.74,.72-3.94c.48-1.21,1.15-2.25,2.01-3.14,.86-.89,1.9-1.58,3.12-2.07,1.22-.5,2.57-.74,4.04-.74,1.37,0,2.62,.28,3.76,.84,1.14,.56,2.14,1.35,3,2.37h.08v-14.32h3.14v30.41h-3.14v-3.34Zm0-6.07c0-.99-.15-1.91-.46-2.76-.31-.84-.76-1.58-1.35-2.21-.59-.63-1.29-1.13-2.11-1.49-.82-.36-1.74-.54-2.76-.54s-1.94,.18-2.76,.54c-.82,.36-1.52,.86-2.11,1.49-.59,.63-1.04,1.37-1.35,2.21-.31,.85-.46,1.76-.46,2.76s.15,1.91,.46,2.76c.31,.84,.76,1.58,1.35,2.21,.59,.63,1.29,1.13,2.11,1.49,.82,.36,1.74,.54,2.76,.54s1.94-.18,2.76-.54c.82-.36,1.52-.86,2.11-1.49,.59-.63,1.04-1.37,1.35-2.21s.46-1.76,.46-2.76"/>
      <path class="cls-4" d="M125.41,104.56c0-1.47,.25-2.82,.76-4.02,.51-1.21,1.21-2.25,2.09-3.12,.89-.87,1.94-1.55,3.18-2.03,1.23-.48,2.57-.72,4.02-.72s2.79,.24,4.02,.72c1.23,.48,2.29,1.16,3.18,2.03,.89,.87,1.58,1.91,2.09,3.12,.51,1.21,.76,2.55,.76,4.02s-.25,2.82-.76,4.02c-.51,1.21-1.21,2.25-2.09,3.12-.88,.87-1.94,1.55-3.18,2.03-1.23,.48-2.57,.72-4.02,.72s-2.79-.24-4.02-.72c-1.23-.48-2.29-1.16-3.18-2.03-.88-.87-1.58-1.91-2.09-3.12-.51-1.21-.76-2.55-.76-4.02m3.38,0c0,.99,.15,1.91,.46,2.76s.76,1.58,1.35,2.21c.59,.63,1.29,1.13,2.11,1.49,.82,.36,1.74,.54,2.76,.54s1.94-.18,2.76-.54c.82-.36,1.52-.86,2.11-1.49,.59-.63,1.04-1.37,1.35-2.21,.31-.84,.46-1.76,.46-2.76s-.15-1.91-.46-2.76c-.31-.84-.76-1.58-1.35-2.21-.59-.63-1.29-1.13-2.11-1.49-.82-.36-1.74-.54-2.76-.54s-1.94,.18-2.76,.54c-.82,.36-1.52,.86-2.11,1.49-.59,.63-1.04,1.37-1.35,2.21-.31,.85-.46,1.76-.46,2.76"/>
      <path class="cls-4" d="M157.31,118.27c-.32,.8-.65,1.53-.99,2.19-.34,.66-.74,1.22-1.21,1.69-.47,.47-1.03,.83-1.69,1.09-.66,.25-1.45,.38-2.39,.38-.46,0-.93-.03-1.43-.08-.5-.05-.96-.19-1.39-.4l.4-2.74c.32,.13,.66,.22,1.01,.26,.35,.04,.75,.06,1.21,.06,1.02,0,1.77-.28,2.25-.84,.48-.56,.9-1.31,1.25-2.25l1.29-3.54-7.8-18.95h3.66l5.83,14.76h.08l5.59-14.76h3.42l-9.09,23.13Z"/>
      <path class="cls-3" d="M182.87,97.8h-5.55v9.41c0,.62,.01,1.19,.04,1.71,.03,.52,.13,.98,.32,1.37,.19,.39,.47,.7,.85,.93,.37,.23,.91,.34,1.61,.34,.46,0,.92-.05,1.41-.16,.48-.11,.94-.27,1.37-.48l.12,2.86c-.54,.24-1.13,.42-1.79,.52-.66,.11-1.28,.16-1.87,.16-1.13,0-2.03-.15-2.69-.44-.67-.3-1.19-.71-1.57-1.25-.38-.54-.62-1.2-.74-1.99-.12-.79-.18-1.67-.18-2.63v-10.34h-4.1v-2.65h4.1v-5.35h3.14v5.35h5.55v2.65Z"/>
      <path class="cls-3" d="M203.54,110.55c-1.13,1.45-2.36,2.46-3.7,3.04-1.34,.58-2.9,.86-4.67,.86-1.47,0-2.8-.26-3.98-.78-1.18-.52-2.18-1.23-3-2.11-.82-.89-1.45-1.93-1.89-3.14-.44-1.21-.66-2.49-.66-3.86,0-1.45,.24-2.78,.72-4,.48-1.22,1.15-2.27,2.01-3.14,.86-.87,1.88-1.55,3.06-2.03,1.18-.48,2.47-.72,3.86-.72,1.31,0,2.52,.22,3.62,.66,1.1,.44,2.04,1.09,2.84,1.93,.79,.84,1.4,1.88,1.83,3.1,.43,1.22,.64,2.61,.64,4.16v1.01h-15.2c.05,.8,.25,1.58,.58,2.31,.33,.74,.77,1.38,1.31,1.93,.54,.55,1.17,.99,1.89,1.31,.72,.32,1.51,.48,2.37,.48,1.37,0,2.52-.24,3.46-.72,.94-.48,1.78-1.19,2.53-2.13l2.37,1.85Zm-2.69-7.68c-.05-1.61-.58-2.9-1.57-3.86-.99-.97-2.36-1.45-4.1-1.45s-3.15,.48-4.22,1.45c-1.07,.97-1.72,2.25-1.93,3.86h11.83Z"/>
      <path class="cls-3" d="M222.48,99.85c-.67-.8-1.39-1.39-2.17-1.75-.78-.36-1.64-.54-2.57-.54-1.05,0-1.97,.18-2.78,.54-.8,.36-1.47,.86-1.99,1.51-.52,.64-.92,1.39-1.19,2.23-.27,.84-.4,1.75-.4,2.72s.15,1.87,.46,2.71c.31,.85,.74,1.59,1.29,2.23,.55,.64,1.21,1.15,1.99,1.51,.78,.36,1.65,.54,2.61,.54,2.07,0,3.66-.78,4.79-2.33l2.33,2.21c-.91,1.05-1.98,1.81-3.22,2.29-1.23,.48-2.53,.72-3.9,.72-1.45,0-2.78-.24-3.98-.72-1.21-.48-2.23-1.17-3.08-2.05-.84-.89-1.5-1.93-1.97-3.14-.47-1.21-.7-2.53-.7-3.98s.23-2.74,.7-3.94c.47-1.21,1.13-2.25,1.99-3.14,.86-.88,1.88-1.58,3.08-2.07,1.19-.5,2.51-.74,3.96-.74s2.72,.24,3.96,.72c1.25,.48,2.34,1.23,3.28,2.25l-2.49,2.21Z"/>
      <path class="cls-3" d="M228.48,83.56h3.14v14.2h.08c.21-.38,.51-.74,.88-1.11,.38-.36,.82-.69,1.35-.99,.52-.3,1.11-.54,1.75-.72,.64-.19,1.33-.28,2.05-.28,1.23,0,2.3,.19,3.2,.56,.9,.38,1.64,.9,2.23,1.57,.59,.67,1.03,1.48,1.31,2.43,.28,.95,.42,1.99,.42,3.12v11.62h-3.14v-11.3c0-1.58-.35-2.83-1.05-3.74-.7-.91-1.78-1.37-3.26-1.37-1.02,0-1.9,.17-2.63,.52-.74,.35-1.34,.85-1.81,1.49-.47,.64-.82,1.41-1.05,2.29-.23,.88-.34,1.86-.34,2.94v9.17h-3.14v-30.41Z"/>
      <path class="cls-3" d="M169.94,111.9c0,.56-.2,1.07-.6,1.51-.4,.44-.93,.66-1.57,.66s-1.17-.22-1.57-.66c-.4-.44-.6-.95-.6-1.51s.2-1.07,.6-1.51c.4-.44,.93-.66,1.57-.66s1.17,.22,1.57,.66c.4,.44,.6,.95,.6,1.51"/>
      <polygon class="cls-4" points="87.83 108.1 92.86 114.43 77.38 114.43 78.51 113.78 82.79 111.93 85.99 109.79 87.83 108.1"/>
      <polygon class="cls-4" points="92.86 54.53 92.86 65.52 101.35 54.53 92.86 54.53"/>
      <path class="cls-3" d="M102.36,54.06c-.08-.17-.26-.28-.45-.28h-18.28c-11.3,0-20.5,9.2-20.5,20.5v29.4l-7.92,10.3c-.06,.07-.09,.16-.1,.25h0s0,0,0,0c0,.02-.03,.22,.08,.35,.08,.17,.26,.28,.45,.28h36.96c.19,0,.36-.11,.45-.28,.08-.17,.06-.37-.05-.52l-4.7-6.11c3.26-3.63,5.24-8.42,5.24-13.68v-28.3l8.76-11.4c.12-.15,.14-.35,.05-.52m-13.11,5.64c0,.96-.78,1.74-1.74,1.74s-1.74-.78-1.74-1.74,.78-1.74,1.74-1.74,1.74,.78,1.74,1.74m2.34,54.17h-12.5c3.26-1.01,6.17-2.81,8.52-5.18l3.98,5.18Zm.96-19.59c0,10.75-8.75,19.5-19.5,19.5h-6.13c2.14-.34,4.17-1.01,6.03-1.97v-19.1l1-1.29v19.84c5.9-3.49,9.88-9.91,9.88-17.23v-15.43l8.73-11.33v27.01Zm1-29.94v-9.57h7.36l-7.36,9.57Z"/>
    </g>
  </g>
</svg>